<svg id="Layer_1" data-name="Layer 1" xmlns="http://www.w3.org/2000/svg" viewBox="0 0 85.61 78.67"><defs><style>.cls-1{fill:#5554a0;}.cls-2{fill:#7b90c8;}.cls-3{fill:#6367ac;}.cls-4{fill:#222;}</style></defs><title>Artboard 1</title><polygon class="cls-1" points="53.74 59.48 44.87 74.84 62.61 74.84 71.48 59.48 71.48 59.48 53.74 59.48"/><polygon class="cls-2" points="71.48 59.48 69.13 55.41 71.48 59.48 71.48 59.48"/><polygon class="cls-1" points="20.04 40.02 11.17 55.38 11.17 55.38 20.04 40.02 20.04 40.02"/><polygon class="cls-2" points="20.04 40.02 11.17 24.66 11.17 24.66 20.04 40.02 20.04 40.02"/><polygon class="cls-3" points="11.17 24.66 11.17 24.66 11.17 24.66 2.3 40.02 11.17 55.38 20.04 40.02 11.17 24.66"/><path class="cls-1" d="M49,59.48H31.27L22.4,74.84H40.14l2.37-4.1h0Z"/><path class="cls-3" d="M22.4,44.12,15.9,55.38h0l-2.37,4.1L22.4,74.84l8.87-15.36Z"/><path class="cls-1" d="M69.11,24.66l2.37-4.1-2.37,4.1Z"/><polygon class="cls-2" points="71.48 20.56 71.48 20.56 62.61 5.2 44.87 5.2 53.74 20.56 71.48 20.56"/><path class="cls-3" d="M44.87,5.2h0L42.51,9.3h0Z"/><polygon class="cls-3" points="53.74 20.56 44.87 5.2 53.74 20.56 53.74 20.56"/><polygon class="cls-2" points="49.01 20.56 49.01 20.56 42.51 9.3 42.51 9.3 42.51 9.3 40.14 5.2 22.4 5.2 31.27 20.56 49.01 20.56"/><polygon class="cls-3" points="22.4 35.92 31.27 20.56 22.4 5.2 22.4 5.2 22.4 5.2 13.53 20.56 15.9 24.66 15.9 24.66 22.4 35.92"/><path class="cls-1" d="M65,40,56.11,55.38H73.84L82.71,40H65Z"/><polygon class="cls-2" points="56.1 24.66 64.97 40.02 82.71 40.02 82.71 40.02 73.84 24.66 69.11 24.66 69.11 24.66 56.1 24.66"/><polygon class="cls-1" points="60.24 40.02 60.24 40.02 42.51 40.02 33.64 55.38 51.38 55.38 60.24 40.02"/><polygon class="cls-2" points="42.51 40.02 60.24 40.02 60.24 40.02 51.38 24.66 33.64 24.66 42.51 40.02"/><polygon class="cls-3" points="42.51 40.02 33.64 24.66 24.77 40.02 33.64 55.38 42.51 40.02"/><path class="cls-4" d="M56.11,55.38,65,40,56.11,24.66h13l2.37-4.1H53.74L44.87,5.2,42.51,9.3h0L49,20.56H31.27L22.4,35.92,15.9,24.66H11.17L20,40,11.17,55.38H15.9l6.5-11.27,8.87,15.36H49l-6.5,11.27h0l2.37,4.1,8.87-15.36H71.48l-2.35-4.07,0,0Zm-4.73,0H33.64L24.77,40l8.87-15.36H51.38L60.24,40Z"/></svg>