<?xml version="1.0" encoding="UTF-8" standalone="no"?>
<svg
   xmlns:dc="http://purl.org/dc/elements/1.1/"
   xmlns:cc="http://creativecommons.org/ns#"
   xmlns:rdf="http://www.w3.org/1999/02/22-rdf-syntax-ns#"
   xmlns:svg="http://www.w3.org/2000/svg"
   xmlns="http://www.w3.org/2000/svg"
   viewBox="0 0 186.66667 43.666668"
   height="43.666668"
   width="186.66667"
   xml:space="preserve"
   id="svg2"
   version="1.1"><metadata
     id="metadata8"><rdf:RDF><cc:Work
         rdf:about=""><dc:format>image/svg+xml</dc:format><dc:type
           rdf:resource="http://purl.org/dc/dcmitype/StillImage" /></cc:Work></rdf:RDF></metadata><defs
     id="defs6" /><g
     transform="matrix(1.3333333,0,0,-1.3333333,0,43.666667)"
     id="g10"><g
       transform="scale(0.1)"
       id="g12"><path
         id="path14"
         style="fill:#ff4660;fill-opacity:1;fill-rule:nonzero;stroke:none"
         d="m 511.277,6.83203 c -18.047,0 -34.273,3.98047 -48.683,11.95317 -14.414,7.9609 -25.731,19.2734 -33.926,33.9257 -8.207,14.6368 -12.305,31.461 -12.305,50.4491 0,18.981 4.098,35.731 12.305,50.27 8.195,14.523 19.512,25.773 33.926,33.75 14.41,7.961 30.636,11.953 48.683,11.953 12.422,0 23.789,-2.11 34.106,-6.328 10.308,-4.219 19.097,-10.547 26.363,-18.985 v 96.321 h 43.945 V 9.29297 H 573.508 V 33.5508 C 566.238,24.6406 557.273,17.9609 546.609,13.5117 535.945,9.05859 524.172,6.83203 511.277,6.83203 m 5.278,155.03097 c -10.547,0 -20.039,-2.406 -28.473,-7.203 -8.437,-4.805 -15.117,-11.664 -20.039,-20.566 -4.922,-8.914 -7.383,-19.223 -7.383,-30.934 0,-11.7225 2.461,-22.0389 7.383,-30.9412 4.922,-8.9063 11.602,-15.7657 20.039,-20.5665 8.434,-4.8046 17.926,-7.207 28.473,-7.207 10.543,0 20.039,2.4024 28.472,7.207 8.442,4.8008 15.121,11.6602 20.039,20.5665 4.922,8.9023 7.383,19.2187 7.383,30.9412 0,11.711 -2.461,22.02 -7.383,30.934 -4.918,8.902 -11.597,15.761 -20.039,20.566 -8.433,4.797 -17.929,7.203 -28.472,7.203" /><path
         id="path16"
         style="fill:#ff4660;fill-opacity:1;fill-rule:nonzero;stroke:none"
         d="M 723.266,9.29297 H 679.32 V 160.461 h -30.937 v 35.156 h 30.937 v 11.953 c 0,20.149 5.856,36.028 17.578,47.629 11.719,11.602 28.243,17.403 49.571,17.403 16.875,0 30.113,-3.399 39.726,-10.196 l -12.304,-33.047 c -7.504,5.157 -15.59,7.735 -24.258,7.735 -18.52,0 -27.774,-10.078 -27.774,-30.231 v -11.246 h 51.68 V 160.461 H 723.266 V 9.29297" /><path
         id="path18"
         style="fill:#ff4660;fill-opacity:1;fill-rule:nonzero;stroke:none"
         d="m 882.516,6.83203 c -25.082,0 -44.825,6.96877 -59.239,20.91797 -14.41,13.9414 -21.617,34.6289 -21.617,62.0469 V 197.023 h 43.942 V 95.7734 c 0,-16.875 3.808,-29.4726 11.425,-37.7929 7.61,-8.3203 18.457,-12.4766 32.52,-12.4766 15.695,0 28.18,4.8594 37.441,14.5899 9.25,9.7226 13.887,23.7265 13.887,42.0082 v 94.921 H 984.82 V 9.29297 H 942.984 V 33.1953 C 935.953,24.7617 927.164,18.2578 916.617,13.6875 906.07,9.11719 894.695,6.83203 882.516,6.83203" /><path
         id="path20"
         style="fill:#ff4660;fill-opacity:1;fill-rule:nonzero;stroke:none"
         d="m 1100.48,6.83203 c -15.24,0 -30.12,1.99219 -44.65,5.97657 -14.54,3.9805 -26.13,9.0156 -34.8,15.1172 l 16.87,33.3945 c 8.44,-5.625 18.57,-10.1367 30.41,-13.5351 11.83,-3.3985 23.49,-5.0977 34.98,-5.0977 26.25,0 39.38,6.9141 39.38,20.7422 0,6.5586 -3.34,11.1328 -10.02,13.7109 -6.68,2.5782 -17.41,5.0391 -32.17,7.3828 -15.47,2.336 -28.07,5.0391 -37.79,8.086 -9.74,3.0469 -18.17,8.3746 -25.32,15.9956 -7.15,7.61 -10.72,18.219 -10.72,31.817 0,17.805 7.44,32.043 22.32,42.715 14.89,10.656 34.99,15.996 60.29,15.996 12.89,0 25.78,-1.473 38.68,-4.395 12.89,-2.937 23.43,-6.855 31.64,-11.777 l -16.88,-33.398 c -15.94,9.367 -33.87,14.058 -53.78,14.058 -12.9,0 -22.68,-1.93 -29.36,-5.797 -6.68,-3.871 -10.02,-8.965 -10.02,-15.293 0,-7.035 3.57,-12.011 10.72,-14.941 7.15,-2.938 18.22,-5.684 33.23,-8.266 14.99,-2.34 27.3,-5.043 36.91,-8.082 9.6,-3.047 17.87,-8.207 24.79,-15.4686 6.9,-7.2656 10.36,-17.5742 10.36,-30.9375 0,-17.5781 -7.62,-31.6406 -22.85,-42.1875 -15.23,-10.5429 -35.98,-15.81637 -62.22,-15.81637" /><path
         id="path22"
         style="fill:#ff4660;fill-opacity:1;fill-rule:nonzero;stroke:none"
         d="m 1311.76,6.83203 c -20.63,0 -38.79,4.09767 -54.49,12.30467 -15.7,8.1992 -27.83,19.625 -36.39,34.2696 -8.56,14.6523 -12.83,31.2343 -12.83,49.7537 0,18.278 4.16,34.742 12.48,49.391 8.32,14.64 19.87,26.066 34.63,34.277 14.77,8.195 31.4,12.305 49.92,12.305 18.28,0 34.63,-4.043 49.04,-12.129 14.42,-8.09 25.67,-19.461 33.75,-34.102 8.09,-14.648 12.13,-31.589 12.13,-50.8 0,-3.0473 -0.23,-7.3832 -0.7,-13.0082 H 1252 c 2.57,-13.8282 9.31,-24.7852 20.21,-32.8672 10.9,-8.086 24.44,-12.1328 40.6,-12.1328 20.63,0 37.62,6.7968 50.98,20.3906 l 23.55,-27.0664 c -8.43,-10.0821 -19.1,-17.6992 -31.99,-22.8516 -12.89,-5.16406 -27.42,-7.73437 -43.59,-7.73437 m -6.68,157.14497 c -14.06,0 -25.96,-4.168 -35.68,-12.481 -9.73,-8.32 -15.65,-19.394 -17.75,-33.223 h 106.51 c -1.88,13.586 -7.61,24.61 -17.22,33.047 -9.61,8.438 -21.56,12.657 -35.86,12.657" /><path
         id="path24"
         style="fill:#ff4660;fill-opacity:1;fill-rule:nonzero;stroke:none"
         d="M 156.402,0 H 0 v 166.973 c 0,89.359 69.7422,160.492 159.094,160.5 89.363,0 159.094,-73.743 159.094,-163.086 C 318.188,75.0313 245.758,0 156.402,0" /></g></g></svg>