<?xml version="1.0" encoding="utf-8"?>
<!-- Generator: Adobe Illustrator 21.0.0, SVG Export Plug-In . SVG Version: 6.00 Build 0)  -->
<svg version="1.1" id="Layer_1" xmlns="http://www.w3.org/2000/svg" xmlns:xlink="http://www.w3.org/1999/xlink" x="0px" y="0px"
	 viewBox="0 0 572 546" style="enable-background:new 0 0 572 546;" xml:space="preserve">
<style type="text/css">
	.st0{fill:#576357;}
	.st1{fill:#707C70;}
	.st2{fill:#8C968C;}
	.st3{fill:#A2AAA2;}
	.st4{fill:#BABFBA;}
	.st5{fill:#6E8E8D;}
	.st6{fill:#86A3A2;}
	.st7{fill:#A7C1BF;}
	.st8{fill:#C7DDDB;}
	.st9{fill:#DCEAE8;}
	.st10{fill:#5E8484;}
	.st11{fill:#456C6D;}
	.st12{fill:#CFD1CF;}
	.st13{fill:#E0E0E0;}
</style>
<g>
	<polygon class="st0" points="78,251.6 78,324.1 114.3,261.3 114.3,188.7 	"/>
	<polygon class="st1" points="78,324.1 114.3,387 150.6,324.1 114.3,261.3 	"/>
	<rect x="127.6" y="337.4" transform="matrix(0.5 -0.866 0.866 0.5 -241.7157 328.7461)" class="st2" width="72.6" height="72.6"/>
	<polygon class="st3" points="213.4,360.4 177.1,423.3 249.7,423.3 286,360.4 	"/>
	<polygon class="st4" points="286,360.4 249.7,423.3 312.6,387 348.9,324.1 	"/>
	<polygon class="st5" points="150.6,449.8 213.4,486.1 177.1,423.3 114.3,387 	"/>
	<polygon class="st6" points="213.4,486.1 286,486.1 249.7,423.3 177.1,423.3 	"/>
	<rect x="263" y="400.3" transform="matrix(0.866 -0.5 0.5 0.866 -178.19 208.1339)" class="st7" width="72.6" height="72.6"/>
	<polygon class="st8" points="312.6,387 348.9,449.8 385.1,387 348.9,324.1 	"/>
	<polygon class="st9" points="385.1,387 385.1,314.4 348.9,251.6 348.9,324.1 	"/>
	<polygon class="st7" points="213.4,360.4 286,360.4 223.2,324.1 150.6,324.1 	"/>
	<polygon class="st6" points="114.3,261.3 150.6,324.1 223.2,324.1 186.9,261.3 	"/>
	<rect x="114.3" y="188.7" class="st5" width="72.6" height="72.6"/>
	<polygon class="st10" points="186.9,188.7 223.2,125.9 150.6,125.9 114.3,188.7 	"/>
	<polygon class="st11" points="286,89.6 213.4,89.6 150.6,125.9 223.2,125.9 	"/>
	<polygon class="st12" points="223.2,251.6 186.9,188.7 186.9,261.3 223.2,324.1 	"/>
	<polygon class="st4" points="259.4,188.7 223.2,125.9 186.9,188.7 223.2,251.6 	"/>
	<rect x="236.4" y="102.9" transform="matrix(0.866 -0.5 0.5 0.866 -33.0353 155.0059)" class="st3" width="72.6" height="72.6"/>
	<polygon class="st2" points="322.3,152.4 394.9,152.4 358.6,89.6 286,89.6 	"/>
	<polygon class="st1" points="457.7,188.7 421.4,125.9 358.6,89.6 394.9,152.4 	"/>
	<polygon class="st13" points="348.9,449.8 286,486.1 358.6,486.1 421.4,449.8 	"/>
	<polygon class="st12" points="385.1,387 348.9,449.8 421.4,449.8 457.7,387 	"/>
	<rect x="385.1" y="314.4" class="st4" width="72.6" height="72.6"/>
	<polygon class="st3" points="348.9,251.6 385.1,314.4 457.7,314.4 421.4,251.6 	"/>
	<polygon class="st2" points="286,215.3 348.9,251.6 421.4,251.6 358.6,215.3 	"/>
	<polygon class="st8" points="457.7,314.4 457.7,387 494,324.1 494,251.6 	"/>
	<polygon class="st7" points="421.4,251.6 457.7,314.4 494,251.6 457.7,188.7 	"/>
	<rect x="371.9" y="165.7" transform="matrix(0.5 -0.866 0.866 0.5 29.1488 454.4555)" class="st6" width="72.6" height="72.6"/>
	<polygon class="st5" points="286,215.3 358.6,215.3 394.9,152.4 322.3,152.4 	"/>
	<polygon class="st10" points="286,215.3 322.3,152.4 259.4,188.7 223.2,251.6 	"/>
</g>
</svg>
