<?xml version="1.0" encoding="utf-8"?>
<!-- Generator: Adobe Illustrator 21.0.0, SVG Export Plug-In . SVG Version: 6.00 Build 0)  -->
<svg version="1.1" id="Слой_1" xmlns="http://www.w3.org/2000/svg" xmlns:xlink="http://www.w3.org/1999/xlink" x="0px" y="0px"
	 viewBox="0 0 512 512" style="enable-background:new 0 0 512 512;" xml:space="preserve">
<style type="text/css">
	.st0{clip-path:url(#SVGID_2_);}
	.st1{fill:#808285;}
	.st2{fill:#939598;}
	.st3{clip-path:url(#SVGID_4_);}
	.st4{fill:none;stroke:#454545;stroke-width:2;stroke-miterlimit:10;}
	.st5{fill:#444444;}
</style>
<g>
	<defs>
		<rect id="SVGID_1_" x="-144.6" y="-151.3" width="778.6" height="1007.6"/>
	</defs>
	<clipPath id="SVGID_2_">
		<use xlink:href="#SVGID_1_"  style="overflow:visible;"/>
	</clipPath>
	<g transform="matrix(1.27222 0 0 -1.27222 -149.563578 799.274369)" class="st0">
		<path class="st1" d="M394.9,295.3c-0.5,0.8-0.9,1.5-1.4,2.2l-1.6,2.1l-3.5,3.9c-2.5,2.5-5,4.9-7.7,7.2c-5.4,4.5-11,8.8-16.8,12.6
			c-5.8,3.9-11.8,7.4-18,10.4c-3.1,1.4-6.2,2.8-9.3,3.7c-3.1,1-6.2,1.7-8.9,1.7c-0.6,0-1.3,0-1.9-0.1c-0.3,0-0.6-0.1-0.9-0.1l-0.2,0
			c-0.2,0,0.1,0,0,0c0,0-0.3-0.1,0.1,0c0.2,0,0.5,0.1,0.9,0.3c0,0.4,2.4,0,3.3,5.3c-1.1,5.6-2.7,4.5-2.9,5.2
			c-0.3,0.2-0.6,0.3-0.7,0.3l-0.2,0.1c0,0-0.1,0-0.1,0c0,0,0,0,0,0l0.4-0.1c0.4-0.1,0.7-0.1,1.1-0.1c0.8-0.1,1.6-0.1,2.4-0.2
			c3.3-0.2,6.8-0.2,10.3-0.2c6.9,0.2,13.9,0.6,20.7,1.6c3.4,0.5,6.8,1,10.1,1.8c3.3,0.7,6.6,1.5,9.9,2.5c6.4,2,12.5,4.6,17.7,8.1
			c5.2,3.5,9.2,8.1,11.4,13.5c0.3,0.7,0.5,1.4,0.7,2.1c0.1,0.3,0.2,0.7,0.3,1.1l0.1,0.5l0.1,0.3l0.1,0.3l0.2,0.6l0.2,0.6
			c0.1,0.2,0.2,0.3,0.2,0.5c0.2,0.3,0.3,0.7,0.5,1c0.3,0.6,0.7,1.3,1.2,1.8c0.9,1.1,1.8,2.2,2.9,3c2.1,1.7,4.6,2.9,7.1,3.5l1.1,0.3
			c0.4,0.1,0.9,0.2,1.2,0.4c0.6,0.2,1.2,0.4,1.9,0.7c5.5,2.2,10.3,6.3,13.7,11.5c3.5,5.2,5.8,11.3,6.8,17.7c0.5,3.2,0.7,6.4,0.5,9.6
			c-0.1,1.6-0.2,3.2-0.5,4.7c-0.1,0.8-0.3,1.6-0.5,2.3l-0.1,0.6l-0.2,0.6l-0.4,1.3c-1.8,6.6-4.1,13.1-7,19.3
			c-5.8,12.4-14,23.6-24.1,32.7s-22.2,15.9-35.2,20.4c-13,4.5-26.8,6.8-40.7,7.2c-6.9,0.2-13.9,0.1-20.9-0.5
			c-7-0.6-13.9-1.5-20.8-2.7c-13.8-2.5-27.5-6.1-40.8-10.7c-13.1-4.4-25.5-10.7-36.4-18.9c-5.4-4.1-10.5-8.7-15-13.7
			c-4.5-5-8.4-10.5-11.5-16.3c-3.1-5.8-5.3-12-6.2-18.1c-0.4-3.1-0.4-6.1-0.1-8.9c0.4-2.8,1.3-5.5,2.6-7.7c0.7-1.1,1.4-2.2,2.3-3.1
			c0.9-1,1.6-1.5,2.6-2.1c2-1.1,4.7-1.9,7.9-2.4c3.2-0.5,6.8-0.9,10.7-1.5c3.9-0.7,8.1-1.7,12.3-3.8l0,0l0.8-0.4l0.9-0.8
			c4.6-4.2,9.4-8.1,14.7-11.5c5.3-3.3,10.8-6.3,16.6-8.7c2.9-1.2,5.8-2.3,8.8-3.3c3-0.9,6-1.8,9.1-2.6c6.1-1.5,12.4-2.5,18.7-3.1
			c6.3-0.6,12.6-0.7,19-0.4c6.3,0.3,12.6,1,18.9,2.1c12.4,2.3,24.6,6.3,35.3,12.5c5.3,3.1,10.3,6.7,14.5,10.9
			c4.2,4.2,7.6,9,9.6,14.2c1,2.6,1.7,5.3,2.1,8.1c0.1,0.7,0.2,1.4,0.2,2.1l0,1l0,0.5c0,0,0,0.2,0,0l0,0.2l0,0.3l0,2.5l-0.1,2.1
			c-0.5,5.9-2,11.7-4.6,16.9c-5.1,10.6-14.7,18.9-25.9,24.2c-11.2,5.3-23.9,8.1-36.6,8.9c-6.4,0.4-12.8,0.2-19.1-0.5
			c-6.4-0.7-12.7-1.8-18.8-3.5c-6.1-1.7-12.1-3.9-17.8-6.7c-1.4-0.7-2.8-1.4-4.2-2.2l-1-0.6l-0.5-0.3l-0.4-0.3
			c-0.7-0.4-1.5-0.9-2-1.3c-2.4-1.6-4.8-3.5-6.9-5.5c-4.2-4.1-7.2-9-8.3-14.2c-1.2-5.2-0.4-10.6,2-15.5c2.4-4.9,6.5-9.1,11.3-12.3
			c4.8-3.3,10.4-5.7,16.3-7.4c11.8-3.3,24.7-4,37.3-2.7c6.1,0.6,12.2,2,17.4,4.3c5.2,2.3,9.5,5.8,11.6,10c0.5,1.1,0.9,2.2,1.2,3.3
			c0.3,1.1,0.4,2.3,0.4,3.5c0,2.4-0.6,4.8-1.7,7.1c-2.2,4.6-6.3,8.4-11.3,10.2c-1.2,0.5-2.5,0.8-3.9,1c-1.3,0.2-2.7,0.3-4.1,0.2
			c-2.8-0.1-5.6-0.6-8.4-1.5c-2.8-0.9-5.7-2.1-8.5-3.6s-5.6-3.2-8.5-5l-1.6,1.6c3.5,6,8.7,11.3,15.3,14.8c3.3,1.7,7,2.9,10.9,3.4
			c2,0.2,3.9,0.3,5.9,0.1c2-0.2,4-0.5,5.9-1c7.8-2.1,14.7-7.5,18.7-14.8c1-1.8,1.8-3.8,2.4-5.8c0.6-2.1,0.9-4.2,1-6.3
			c0.2-4.3-0.7-8.7-2.5-12.6c-1.8-3.9-4.5-7.3-7.6-9.9c-3.1-2.7-6.5-4.7-10-6.3c-3.5-1.6-7-2.7-10.6-3.6c-3.6-0.9-7.1-1.5-10.7-1.9
			c-1.9-0.2-3.5-0.3-5.2-0.5l-0.4,0l-2.3-0.1c-0.9,0-1.8-0.1-2.6-0.1c-3.5-0.1-7,0-10.6,0.2c-7.1,0.5-14.2,1.6-21.1,3.6
			c-6.9,2.1-13.8,5-19.9,9.4c-6.1,4.3-11.6,10.1-15.1,17.3c-1.7,3.6-2.9,7.5-3.4,11.5c-0.5,4-0.2,8.1,0.7,12.1
			c1.9,7.9,6.4,14.7,11.9,19.8c1.4,1.3,2.8,2.5,4.3,3.7c0.7,0.6,1.5,1.1,2.2,1.6l1.1,0.8l1.2,0.8c0.9,0.5,1.5,0.9,2.3,1.4l0.6,0.4
			l0.6,0.3l1.2,0.6c1.6,0.8,3.1,1.6,4.7,2.4c6.4,3,13,5.4,19.8,7.2c13.5,3.7,27.5,5.1,41.5,4.5c7-0.3,14-1.2,20.8-2.7
			s13.7-3.7,20.2-6.7c6.5-3,12.7-6.9,18.3-11.7c5.5-4.8,10.3-10.7,13.8-17.4c3.5-6.7,5.6-14,6.3-21.4l0.2-2.9l0.1-2.5l0-0.3l0-0.2
			l0-0.3l0-0.7l0-1.5c0-1-0.1-1.9-0.2-2.9c-0.4-3.9-1.3-7.7-2.7-11.4c-2.7-7.3-7.1-13.7-12.2-19c-5.1-5.4-11-9.8-17.2-13.5
			c-12.4-7.4-25.9-12-39.7-14.8c-13.8-2.7-28-3.4-42-2.2c-14,1.3-28,4.5-41,10.2c-13.1,5.6-25.2,13.6-35.3,23.8l1.7-1.2
			c-2.2,1.2-5,2-8.2,2.6c-3.2,0.6-6.7,1-10.6,1.7c-1.9,0.4-4,0.8-6.1,1.5s-4.3,1.6-6.4,2.8c-2.1,1.2-4.3,3-5.7,4.7
			c-1.5,1.7-2.9,3.6-4,5.6c-2.2,4-3.5,8.4-4.1,12.6c-0.5,4.3-0.4,8.5,0.2,12.6c1.2,8.1,4.1,15.6,7.9,22.4c3.8,6.8,8.4,13,13.5,18.7
			c5.2,5.6,10.9,10.7,17,15.1c12.2,8.9,25.9,15.6,40,20.2c13.9,4.6,28.1,8.3,42.6,10.8c14.5,2.5,29.3,3.7,44.1,3.1
			c14.8-0.6,29.7-3.1,43.9-8c14.2-4.9,27.5-12.6,38.9-22.6c11.3-10.1,20.4-22.6,26.7-36.2c3.2-6.8,5.7-13.9,7.7-21.1l0.3-1.3
			l0.2-0.7l0.2-0.7c0.2-1,0.4-2,0.6-3c0.4-2,0.6-4,0.7-6c0.2-4,0.1-8-0.5-11.9c-1.2-7.8-3.8-15.5-8.3-22.3c-2.2-3.4-4.9-6.6-8-9.3
			c-3.1-2.8-6.7-5.1-10.5-6.8c-0.9-0.4-2-0.8-3.1-1.2c-0.6-0.2-0.9-0.3-1.4-0.4l-1.5-0.4c-0.9-0.3-1.8-0.7-2.4-1.3
			c-0.3-0.3-0.6-0.6-0.8-0.9c-0.1-0.1-0.2-0.3-0.3-0.5c0-0.1-0.1-0.1-0.1-0.2c0,0,0-0.1,0-0.1l0,0l0,0l-0.1-0.3l-0.1-0.3
			c0-0.1,0.1,0.3,0,0l0-0.2c-0.1-0.5-0.3-1-0.4-1.5c-0.3-1-0.6-2-1-3c-1.5-4-3.7-7.8-6.4-11c-2.7-3.3-5.8-6-9.1-8.4
			c-6.6-4.7-13.9-7.8-21.2-10.1c-3.7-1.1-7.3-2.1-11-2.9c-3.7-0.8-7.4-1.3-11.1-1.8c-7.4-0.9-14.8-1.4-22.3-1.3
			c-3.7,0-7.4,0.1-11.3,0.5c-1,0.1-1.9,0.2-2.9,0.3c-0.5,0.1-1,0.1-1.6,0.2c-0.3,0-0.6,0.1-0.9,0.2l-0.6,0.1l-0.4,0.1
			c-0.1,0-0.3,0.1-0.5,0.2c-0.3,0.1-0.7,0.3-1,0.5c-0.3,0.7-2-0.3-3.2,5.4c1,5.4,3.4,5.1,3.6,5.5c0.5,0.2,0.9,0.4,1.2,0.4
			c0.5,0.1,0.3,0.1,0.4,0.1c0.1,0,0.2,0,0.4,0.1l0.5,0.1c0.6,0.1,1.2,0.2,1.8,0.2c1.2,0.1,2.3,0.1,3.5,0c4.5-0.3,8.4-1.4,12.1-2.9
			c3.7-1.4,7.1-3.1,10.4-5c6.6-3.7,12.6-8.1,18.3-12.8c5.7-4.8,11-9.9,15.8-15.5c2.4-2.8,4.7-5.7,6.7-8.8c2-3.1,3.9-6.4,4.9-10.1
			L394.9,295.3z"/>
	</g>
</g>
<path class="st2" d="M18.5,481.6c0-2.4,0.4-4.5,1.1-6.4c0.8-1.9,1.8-3.5,3.1-4.9c1.3-1.3,2.9-2.3,4.7-3c1.8-0.7,3.8-1.1,5.9-1.1
	c2.2,0,4.1,0.4,5.6,1.2c1.5,0.8,2.7,1.6,3.7,2.5l-2.3,2.4c-0.8-0.8-1.8-1.4-2.8-2c-1-0.5-2.4-0.8-4-0.8c-1.6,0-3.1,0.3-4.4,0.9
	c-1.3,0.5-2.4,1.3-3.3,2.4c-0.9,1-1.6,2.3-2.2,3.8c-0.5,1.5-0.7,3.1-0.7,5c0,1.9,0.2,3.6,0.7,5.1c0.5,1.5,1.2,2.8,2.1,3.8
	c0.9,1.1,2,1.9,3.3,2.5c1.3,0.6,2.9,0.9,4.6,0.9c1.1,0,2.2-0.2,3.2-0.5c1-0.3,1.9-0.8,2.6-1.3v-7.8h-6.8v-3.1H43v12.5
	c-1,1-2.4,1.8-4.2,2.5c-1.7,0.6-3.6,1-5.8,1c-2.1,0-4.1-0.3-5.8-1c-1.8-0.7-3.3-1.7-4.6-3c-1.3-1.3-2.3-3-3-4.9
	C18.9,486.2,18.5,484,18.5,481.6L18.5,481.6z M89.3,480.8h5.4c2.5,0,4.5-0.5,5.8-1.4c1.3-1,2-2.4,2-4.4c0-2-0.7-3.3-2-4.1
	c-1.3-0.8-3.3-1.2-5.8-1.2h-5.4V480.8z M103,496.5l-7.8-12.6h-5.8v12.6h-4.1v-29.8h10.1c1.6,0,3.1,0.2,4.5,0.5
	c1.4,0.3,2.6,0.7,3.6,1.4c1,0.7,1.8,1.5,2.4,2.6c0.6,1.1,0.8,2.4,0.8,3.9c0,2.3-0.7,4.2-2,5.6c-1.3,1.4-3.1,2.3-5.3,2.9l8.2,13
	L103,496.5z M148.4,466.7h18.6v3.2h-14.5v9.4h12.2v3.2h-12.2v10.8h15v3.2h-19.1L148.4,466.7z M214,485l-9.7-18.2h4.4l4.2,8.4
	c0.5,1.1,1,2.2,1.5,3.2c0.5,1.1,1,2.2,1.6,3.3h0.2c0.6-1.1,1.1-2.2,1.7-3.3s1.1-2.1,1.6-3.2l4.1-8.4h4.3l-9.7,18.2v11.5H214L214,485
	z"/>
<g>
	<defs>
		<rect id="SVGID_3_" x="-144.6" y="-151.3" width="778.6" height="1007.6"/>
	</defs>
	<clipPath id="SVGID_4_">
		<use xlink:href="#SVGID_3_"  style="overflow:visible;"/>
	</clipPath>
	<g transform="matrix(1.27222 0 0 -1.27222 -149.563578 799.274369)" class="st3">
		<path class="st4" d="M317.4,268.8v-37.5"/>
	</g>
</g>
<path class="st5" d="M285.4,465.5h7.7l5.4,13.3l1.9,5.2h0.2l1.9-5.2l5.2-13.3h7.6v29.6h-6.7v-10.9c0-0.7,0-1.5,0.1-2.4
	c0.1-0.9,0.1-1.8,0.2-2.6c0.1-0.9,0.2-1.8,0.3-2.6c0.1-0.9,0.2-1.7,0.3-2.4h-0.2l-2.7,6.9l-4.9,11.5h-2.9l-4.9-11.5l-2.6-6.9h-0.2
	c0.1,0.7,0.2,1.5,0.3,2.4c0.1,0.8,0.2,1.7,0.2,2.6c0.1,0.9,0.2,1.8,0.2,2.6c0.1,0.9,0.1,1.7,0.1,2.4v10.9h-6.6V465.5z M371.2,482.9
	l-0.7-2.7c-0.5-1.5-0.9-3.1-1.3-4.7c-0.4-1.7-0.9-3.3-1.3-4.8h-0.2c-0.4,1.6-0.8,3.2-1.2,4.9c-0.4,1.6-0.8,3.2-1.3,4.7l-0.8,2.7
	L371.2,482.9z M372.6,488.1h-9.8l-2,7h-7.4l10-29.6h8.7l10,29.6h-7.7L372.6,488.1z M422.5,486.8c1.1,0.9,2.4,1.6,3.8,2.2
	c1.4,0.6,2.8,0.9,4.1,0.9c1.5,0,2.6-0.3,3.3-0.8c0.8-0.5,1.1-1.2,1.1-2.1c0-0.5-0.1-0.8-0.3-1.2c-0.2-0.3-0.5-0.6-0.9-0.9
	c-0.4-0.3-0.9-0.5-1.5-0.7c-0.6-0.2-1.2-0.5-1.9-0.8l-4.2-1.6c-0.8-0.3-1.6-0.7-2.4-1.2c-0.8-0.5-1.4-1-2.1-1.7
	c-0.6-0.7-1.1-1.4-1.4-2.3c-0.4-0.9-0.5-1.9-0.5-3c0-1.2,0.3-2.3,0.8-3.4c0.6-1.1,1.3-2,2.4-2.8c1-0.8,2.2-1.5,3.6-1.9
	c1.4-0.5,2.9-0.7,4.6-0.7c1.9,0,3.7,0.3,5.5,1c1.8,0.7,3.4,1.6,4.8,2.9l-3.7,4.2c-1-0.8-2.1-1.3-3.1-1.7c-1-0.4-2.2-0.6-3.5-0.6
	c-1.2,0-2.2,0.2-3,0.7c-0.7,0.5-1.1,1.1-1.1,2c0,0.5,0.1,0.8,0.3,1.2c0.3,0.3,0.6,0.6,1,0.9c0.5,0.2,1,0.5,1.6,0.7
	c0.6,0.2,1.2,0.5,1.9,0.7l4.1,1.5c2,0.7,3.5,1.7,4.6,3c1.1,1.3,1.7,3,1.7,5c0,1.2-0.3,2.4-0.8,3.5c-0.5,1.1-1.3,2.1-2.4,2.9
	c-1,0.8-2.3,1.5-3.8,2c-1.5,0.5-3.2,0.7-5.1,0.7c-2.1,0-4.2-0.3-6.3-1c-2.1-0.7-3.9-1.8-5.6-3.2L422.5,486.8z M483.7,486.8
	c1.1,0.9,2.4,1.6,3.8,2.2c1.4,0.6,2.8,0.9,4.1,0.9c1.5,0,2.6-0.3,3.3-0.8c0.8-0.5,1.1-1.2,1.1-2.1c0-0.5-0.1-0.8-0.3-1.2
	c-0.2-0.3-0.5-0.6-0.9-0.9c-0.4-0.3-0.9-0.5-1.5-0.7c-0.6-0.2-1.2-0.5-1.9-0.8l-4.2-1.6c-0.8-0.3-1.6-0.7-2.4-1.2
	c-0.8-0.5-1.4-1-2.1-1.7c-0.6-0.7-1.1-1.4-1.4-2.3c-0.4-0.9-0.5-1.9-0.5-3c0-1.2,0.3-2.3,0.8-3.4c0.6-1.1,1.3-2,2.4-2.8
	c1-0.8,2.2-1.5,3.6-1.9c1.4-0.5,2.9-0.7,4.6-0.7c1.9,0,3.7,0.3,5.5,1c1.8,0.7,3.4,1.6,4.8,2.9l-3.7,4.2c-1-0.8-2.1-1.3-3.1-1.7
	c-1-0.4-2.2-0.6-3.5-0.6c-1.2,0-2.2,0.2-3,0.7c-0.7,0.5-1.1,1.1-1.1,2c0,0.5,0.1,0.8,0.3,1.2c0.3,0.3,0.6,0.6,1,0.9
	c0.5,0.2,1,0.5,1.6,0.7c0.6,0.2,1.2,0.5,1.9,0.7l4.1,1.5c2,0.7,3.5,1.7,4.6,3c1.1,1.3,1.7,3,1.7,5c0,1.2-0.3,2.4-0.8,3.5
	c-0.5,1.1-1.3,2.1-2.4,2.9c-1,0.8-2.3,1.5-3.8,2c-1.5,0.5-3.2,0.7-5.1,0.7c-2.1,0-4.2-0.3-6.3-1c-2.1-0.7-3.9-1.8-5.6-3.2
	L483.7,486.8z"/>
</svg>
