<?xml version="1.0" encoding="utf-8"?>
<!-- Generator: Adobe Illustrator 21.0.0, SVG Export Plug-In . SVG Version: 6.00 Build 0)  -->
<svg version="1.1" id="Camada_1" xmlns="http://www.w3.org/2000/svg" xmlns:xlink="http://www.w3.org/1999/xlink" x="0px" y="0px"
	 viewBox="0 0 1024 1024" style="enable-background:new 0 0 1024 1024;" xml:space="preserve">
<style type="text/css">
	.st0{fill:#FFFFFF;}
</style>
<g>
	<path class="st0" d="M375.4,849.6v13.5h-49.8v-62h48.6v13.5H343V825h27.5v13.1H343v11.3h32.4V849.6z"/>
	<path class="st0" d="M386.3,832.2c0-18.6,14.6-32.2,34.4-32.2s34.4,13.6,34.4,32.2c0,18.6-14.6,32.2-34.4,32.2
		S386.3,850.8,386.3,832.2z M437.4,832.2c0-10.7-7.3-17.7-16.7-17.7c-9.4,0-16.7,7-16.7,17.7s7.3,17.7,16.7,17.7
		S437.4,842.9,437.4,832.2z"/>
	<path class="st0" d="M464.4,857.6l5.8-12.9c5.5,3.6,13.3,6.1,20.5,6.1c7.3,0,10.1-2,10.1-5c0-9.8-35.2-2.7-35.2-25.7
		c0-11.1,9-20.1,27.4-20.1c8.1,0,16.4,1.9,22.5,5.4l-5.4,13c-5.9-3.2-11.8-4.8-17.2-4.8c-7.3,0-10,2.5-10,5.6
		c0,9.5,35.1,2.4,35.1,25.2c0,10.8-9,20-27.4,20C480.4,864.4,470.3,861.7,464.4,857.6z"/>
	<path class="st0" d="M578.2,863.2l-14.6-20.5c-1.6,0.2-3.3,0.3-5.1,0.3h-17.1v20.2h-6.7v-63.7h23.9c16.2,0,26,8.2,26,21.9
		c0,10-5.3,17-14.6,20l15.6,21.9h-7.4V863.2z M577.9,821.3c0-10.2-6.7-16-19.5-16h-16.9v32h16.9
		C571.1,837.2,577.9,831.3,577.9,821.3z"/>
	<path class="st0" d="M605.1,799.4h6.7v63.7h-6.7V799.4z"/>
	<path class="st0" d="M631.5,831.3c0-18.6,14.2-32.4,33.5-32.4c19.1,0,33.4,13.7,33.4,32.4s-14.3,32.4-33.4,32.4
		C645.7,863.7,631.5,849.9,631.5,831.3z M691.7,831.3c0-15.2-11.4-26.4-26.7-26.4c-15.4,0-26.9,11.2-26.9,26.4s11.5,26.4,26.9,26.4
		C680.3,857.7,691.7,846.5,691.7,831.3z"/>
	<path class="st0" d="M542.2,411.2c-1,0.5-2.1,1-3.2,1.5c-8.5,4-19.1,9.1-26.8,5.8c-3.5-1.5-6-4.6-7.5-9.2
		c-16-49.5-33.8-82.4-52.5-97.3L439,329.2c11.9,4.7,23.5,16.4,34.6,35c9.9,16.7,19.4,39.1,28.3,66.4c1.2,3.8,3.2,6.3,5.9,7.4
		c6.4,2.8,16.1-1.8,23.8-5.5c1.1-0.5,2.1-1,3.1-1.5c18.2-8.4,33.7-13.7,48.7-16.7c15.6-3.1,30.6-3.7,45.8-1.7l-4.3-21.5
		C599.4,390.5,573.6,396.8,542.2,411.2z"/>
	<path class="st0" d="M529.4,452.5c-0.9,0.4-1.9,0.9-3,1.4c-6.1,2.9-13.3,6.3-19.6,6.3c-1.8,0-3.6-0.3-5.2-1c-3.2-1.4-5.6-4.3-7-8.6
		c-21.4-66.2-46.3-100.1-72-98.1c-0.6,0-1.3,0.1-1.9,0.2l-18.9,24.5l-1.3,6.5c6.9-6.8,13.7-10.5,20.5-11
		c15.9-1.2,31.3,10.4,45.7,34.7c9.2,15.5,18.1,36.3,26.3,61.8c1.1,3.5,2.9,5.8,5.4,6.9c5.9,2.6,14.9-1.7,22.1-5.1
		c1-0.5,2-0.9,2.9-1.4c35.7-16.4,63.5-21.3,92.9-16.4c7.6,1.3,15,3.3,22.2,6.1l-4.3-21.5c-3.4-0.9-6.8-1.6-10.3-2.2
		C594.1,430.7,565.8,435.7,529.4,452.5z"/>
	<path class="st0" d="M511.2,384.6c1.3,4.1,3.4,6.8,6.4,8.1c6.9,3,17.4-2,25.7-5.9c1.2-0.6,2.3-1.1,3.3-1.6
		c19.6-9,36.3-14.7,52.5-18c4.5-0.9,9-1.6,13.5-2.1l-12.9-16.7c-14.2,3.5-29,8.9-46,16.7c-1.1,0.5-2.2,1-3.4,1.6
		c-9.1,4.3-20.5,9.7-28.7,6.2c-3.7-1.6-6.4-4.9-8-9.8c-11.6-35.9-24.1-63.6-37.2-82.8l-9.9,12.8c4.8,5.5,9.5,12.2,14.1,20
		C491.5,331.1,501.7,355.2,511.2,384.6z"/>
	<path class="st0" d="M518.8,492.3c-0.9,0.4-1.8,0.8-2.8,1.3c-7.3,3.5-16.5,7.8-23.1,5c-3-1.3-5.2-4-6.5-8
		c-19.9-61.5-43-93-66.8-91.1c-9.2,0.7-18,8.3-25.9,18.8l-4.7,23.3c9.7-13.8,19.2-21.1,28.6-21.9c14.7-1.1,28.9,9.6,42.2,32
		c8.5,14.3,16.7,33.5,24.3,57c1,3.2,2.7,5.3,5,6.3c5.4,2.3,13.7-1.6,20.3-4.7c0.9-0.4,1.8-0.9,2.7-1.3c33-15.1,58.6-19.6,85.7-15.1
		c19.1,3.2,36.9,11.7,53,25.2l-5.6-28c-12.1-7.3-24.8-12.1-38.2-14.3C579,472.1,552.7,476.8,518.8,492.3z"/>
	<path class="st0" d="M565.9,317.2c-1.2,0.5-2.4,1.1-3.7,1.7c-9.7,4.6-21.9,10.4-30.6,6.6c-3.9-1.7-6.8-5.2-8.5-10.5
		c-7.9-24.6-16.3-45.6-24.9-62.9l-9.4,12.2c11.2,19.1,21.9,44.4,31.8,75.3c1.4,4.5,3.7,7.3,6.9,8.7c7.5,3.2,18.7-2.1,27.7-6.4
		c1.2-0.6,2.4-1.2,3.6-1.7c9.3-4.3,18-7.9,26.3-10.8l-11.9-15.5C570.8,314.9,568.4,316,565.9,317.2z"/>
	<path class="st0" d="M617.2,583.6c-14.8-13.7-31.4-22.2-49.3-25.2c-23-3.9-44.9,0-73,12.9c-0.7,0.3-1.5,0.7-2.3,1.1
		c-6.1,2.9-13.8,6.6-19.4,4.1c-2.6-1.1-4.4-3.4-5.5-6.8c-16.5-51-35.6-77.2-55.4-75.7c-22.1,1.7-41.5,51.4-48.1,70.4l-5.6,27.8
		l153.5,93.9l127.2-77.9C631.8,598.5,624.5,590.4,617.2,583.6z"/>
	<path class="st0" d="M658.4,557.3c-5-5.8-10-11-15-15.7c-16.4-15.2-34.9-24.6-54.7-28c-25.6-4.3-49.8,0-81,14.3
		c-0.8,0.4-1.7,0.8-2.5,1.2c-6.8,3.2-15.2,7.2-21.4,4.6c-2.8-1.2-4.9-3.7-6.1-7.4c-18.3-56.6-39.6-85.7-61.5-84
		c-12.7,1-24.6,16.2-34.1,33.6l-5.7,28.3c12.5-24.8,25-37.9,37.1-38.8c13.4-1,26.3,8.7,38.3,29.1c7.7,13,15.1,30.4,22,51.6
		c0.9,2.9,2.4,4.7,4.4,5.6c4.9,2.1,12.3-1.4,18.3-4.3c0.8-0.4,1.6-0.8,2.4-1.1c29.9-13.7,53.1-17.8,77.7-13.7
		c19.2,3.2,36.9,12.3,52.7,26.9c6.3,5.8,20.7,22.8,31.2,35.7l5-3L658.4,557.3z"/>
	<path class="st0" d="M532.7,287.5c1.6,4.9,4,8,7.6,9.5c5.1,2.2,11.9,0.7,18.6-1.8L513.4,236C520,251.1,526.5,268.3,532.7,287.5z"/>
	<path class="st0" d="M656.5,347.5L512,159.6l0,0l0,0v0.3v-0.3l0,0l0,0L367.5,347.5l-56.9,282.1L512.1,753l201.3-123.3L656.5,347.5z
		 M512.1,717L335,608.6l50-247.9l127-165.1l0,0l0,0v0.3v-0.3l0,0l0,0l127,165.1l50,247.9L512.1,717z"/>
</g>
</svg>
