<?xml version="1.0" encoding="utf-8"?>
<!-- Generator: Adobe Illustrator 21.0.0, SVG Export Plug-In . SVG Version: 6.00 Build 0)  -->
<svg version="1.1"
	 id="svg3473" inkscape:version="0.91 r13725" sodipodi:docname="logo_text.svg" xmlns:cc="http://creativecommons.org/ns#" xmlns:dc="http://purl.org/dc/elements/1.1/" xmlns:inkscape="http://www.inkscape.org/namespaces/inkscape" xmlns:rdf="http://www.w3.org/1999/02/22-rdf-syntax-ns#" xmlns:sodipodi="http://sodipodi.sourceforge.net/DTD/sodipodi-0.dtd" xmlns:svg="http://www.w3.org/2000/svg"
	 xmlns="http://www.w3.org/2000/svg" xmlns:xlink="http://www.w3.org/1999/xlink" x="0px" y="0px" viewBox="0 0 990 765"
	 style="enable-background:new 0 0 990 765;" xml:space="preserve">
<style type="text/css">
	.st0{fill:#FFFFFF;}
	.st1{clip-path:url(#SVGID_2_);}
	.st2{fill:url(#path3503_1_);}
	.st3{clip-path:url(#SVGID_4_);}
	.st4{fill:url(#path3525_1_);}
	.st5{clip-path:url(#SVGID_6_);}
</style>
<sodipodi:namedview  bordercolor="#666666" borderopacity="1" gridtolerance="10" guidetolerance="10" id="namedview3475" inkscape:current-layer="g3481" inkscape:cx="495" inkscape:cy="382.5" inkscape:pageopacity="0" inkscape:pageshadow="2" inkscape:window-height="999" inkscape:window-maximized="1" inkscape:window-width="1440" inkscape:window-x="0" inkscape:window-y="25" inkscape:zoom="2.0242424" objecttolerance="10" pagecolor="#ffffc5" showgrid="false">
	</sodipodi:namedview>
<g id="g3481" transform="matrix(1.25,0,0,-1.25,0,765)" inkscape:groupmode="layer" inkscape:label="CryptoLions_Logo_Color_For_Light_RGB">
	<rect id="rect3579" x="162" y="278.2" class="st0" width="376.2" height="-199.7"/>
	<rect id="rect3597" x="269.8" y="431.4" class="st0" width="266.5" height="-189.9"/>
	<rect id="rect3599" x="224.5" y="334" class="st0" width="88.2" height="-140.3"/>
	<g id="g3483">
		<g>
			<defs>
				<path id="SVGID_1_" d="M332.5,534.9L161.7,296.6V150.9l135.4,198.3l-16.1,21l12.6,38.4l48.7-8.7l-20.3-1.9l-10.3-21.3l19-18.7
					l59.3,52.5l30-15.8l23.9,17.7l51.3-41.6l-44.2-1.9l29.3-36.4l-1.9,14.8h26.8l-9.7-31.9l-8.1,6.4h-66.1v-12.9l20.3-8.4L459,273
					l-36.4-30.6l-37.4,47.1h-28.7l-24.2,44.8L261,207.9l75.1,56.1l27.4-135.1l70,55.8l32.6-106.9h158v81.7l-51.7,65.5v112.4
					l-21.8,40.1l1.3,39.5l-21.9,25.1h-31.6L479.6,461l-38.7-18.1l27.1,32.9l-69.6-5.8l-46.8,65c-2.3,3.2-5.9,4.9-9.5,4.9l0,0
					C338.5,539.8,334.9,538.2,332.5,534.9 M511.8,398.1l-9.2,14.9l-28.8,7.7l37.7,5.8l17.4-19.3l-7.1-34.5L511.8,398.1z
					 M471.9,276.6l12.2,22.7l22.4-2.9l-4.1-45.2L471.9,276.6L471.9,276.6z M450.7,245.9h21.2l-7-25.1h-38.2L450.7,245.9L450.7,245.9
					z"/>
			</defs>
			<clipPath id="SVGID_2_">
				<use xlink:href="#SVGID_1_"  style="overflow:visible;"/>
			</clipPath>
			<g id="g3485" class="st1">
				<g id="g3491">
					<g id="g3493">
						
							<linearGradient id="path3503_1_" gradientUnits="userSpaceOnUse" x1="151.0301" y1="-11.3932" x2="152.5802" y2="-11.3932" gradientTransform="matrix(-509.0102 606.6147 606.6147 509.0102 84529.3359 -85993.1562)">
							<stop  offset="0" style="stop-color:#F86613"/>
							<stop  offset="0.9" style="stop-color:#F71713"/>
							<stop  offset="1" style="stop-color:#F71713"/>
						</linearGradient>
						<path id="path3503" inkscape:connector-curvature="0" class="st2" d="M332.5,534.9L161.7,296.6V150.9l135.4,198.3l-16.1,21
							l12.6,38.4l48.7-8.7l-20.3-1.9l-10.3-21.3l19-18.7l59.3,52.5l30-15.8l23.9,17.7l51.3-41.6l-44.2-1.9l29.3-36.4l-1.9,14.8h26.8
							l-9.7-31.9l-8.1,6.4h-66.1v-12.9l20.3-8.4L459,273l-36.4-30.6l-37.4,47.1h-28.7l-24.2,44.8L261,207.9l75.1,56.1l27.4-135.1
							l70,55.8l32.6-106.9h158v81.7l-51.7,65.5v112.4l-21.8,40.1l1.3,39.5l-21.9,25.1h-31.6L479.6,461l-38.7-18.1l27.1,32.9
							l-69.6-5.8l-46.8,65c-2.3,3.2-5.9,4.9-9.5,4.9l0,0C338.5,539.8,334.9,538.2,332.5,534.9 M511.8,398.1l-9.2,14.9l-28.8,7.7
							l37.7,5.8l17.4-19.3l-7.1-34.5L511.8,398.1z M471.9,276.6l12.2,22.7l22.4-2.9l-4.1-45.2L471.9,276.6L471.9,276.6z
							 M450.7,245.9h21.2l-7-25.1h-38.2L450.7,245.9L450.7,245.9z"/>
					</g>
				</g>
			</g>
		</g>
	</g>
	<g id="g3505">
		<g>
			<defs>
				<polygon id="SVGID_3_" points="361.2,363.6 373.9,343.6 399.8,341 416.1,332.3 399.7,363.6 361.2,363.6 				"/>
			</defs>
			<clipPath id="SVGID_4_">
				<use xlink:href="#SVGID_3_"  style="overflow:visible;"/>
			</clipPath>
			<g id="g3507" class="st3">
				<g id="g3513">
					<g id="g3515">
						
							<linearGradient id="path3525_1_" gradientUnits="userSpaceOnUse" x1="151.9719" y1="-12.6789" x2="153.5221" y2="-12.6789" gradientTransform="matrix(-56.0502 66.798 66.798 56.0502 9793.4404 -9136.8516)">
							<stop  offset="0" style="stop-color:#F86613"/>
							<stop  offset="0.9" style="stop-color:#F71713"/>
							<stop  offset="1" style="stop-color:#F71713"/>
						</linearGradient>
						<path id="path3525" inkscape:connector-curvature="0" class="st4" d="M361.2,363.6l12.7-20l25.9-2.6l16.3-8.7l-16.4,31.3
							H361.2L361.2,363.6z"/>
					</g>
				</g>
			</g>
		</g>
	</g>
	<g id="g3527">
		<g>
			<defs>
				<rect id="SVGID_5_" x="-375" y="-318.2" width="1534.7" height="1185.9"/>
			</defs>
			<clipPath id="SVGID_6_">
				<use xlink:href="#SVGID_5_"  style="overflow:visible;"/>
			</clipPath>
			<g id="g3529" class="st5">
				<g id="g3535" transform="translate(262.4116,138.9404)">
					<path id="path3537" inkscape:connector-curvature="0" class="st0" d="M-77.2-123.2c2.7,0,5,0.5,6.9,1.4c1.9,0.9,4,2.3,6.1,4.3
						l5-5.1c-4.9-5.4-10.8-8.1-17.8-8.1c-7,0-12.8,2.2-17.3,6.7c-4.6,4.5-6.9,10.2-6.9,17c0,6.9,2.3,12.6,7,17.1
						c4.7,4.6,10.6,6.9,17.7,6.9c7.1,0,13.1-2.6,17.9-7.9l-4.9-5.4c-2.2,2.1-4.3,3.6-6.2,4.4c-2,0.8-4.3,1.2-6.9,1.2
						c-4.7,0-8.6-1.5-11.7-4.5c-3.2-3-4.7-6.9-4.7-11.5c0-4.7,1.6-8.6,4.7-11.7C-85.2-121.6-81.5-123.2-77.2-123.2"/>
				</g>
				<g id="g3539" transform="translate(295.9517,150.2607)">
					<path id="path3541" inkscape:connector-curvature="0" class="st0" d="M-58.7-117c1.6,1.4,2.4,3.6,2.4,6.6s-0.8,5.1-2.4,6.2
						c-1.6,1.1-4.5,1.7-8.7,1.7h-9.9V-119h9.7C-63.3-119-60.3-118.4-58.7-117 M-48.4-110.5c0-7.6-3.3-12.4-10-14.4l12.1-16.8h-9.9
						l-11,15.5h-10.2v-15.5h-7.8v46.1H-68c7,0,12.1-1.2,15.1-3.6C-49.9-101.4-48.4-105.2-48.4-110.5"/>
				</g>
				<g id="g3543" transform="translate(322.2422,134.3877)">
					<path id="path3545" inkscape:connector-curvature="0" class="st0" d="M-44.3-125.7h-7.9v18.2l-17.2,27.9h8.5l12.6-21l12.6,21
						h8.5l-17.1-27.9V-125.7z"/>
				</g>
				<g id="g3547" transform="translate(353.0322,149.2607)">
					<path id="path3549" inkscape:connector-curvature="0" class="st0" d="M-27.3-117.5c1.6,1.6,2.3,4.1,2.3,7.3c0,3.2-1,5.4-3,6.8
						c-2,1.3-5.1,2-9.3,2h-7.9V-120h9C-31.8-120-28.9-119.2-27.3-117.5 M-21.8-98.5c3.2-2.7,4.8-6.8,4.8-12.4s-1.6-9.7-4.9-12.3
						c-3.3-2.6-8.3-3.9-15.1-3.9h-8.2v-13.5h-7.8v46.1h15.8C-30.1-94.5-25-95.8-21.8-98.5"/>
				</g>
				<g id="g3551" transform="translate(375.4463,159.5381)">
					<path id="path3553" inkscape:connector-curvature="0" class="st0" d="M-15-111.9v-39h-7.8v39h-14v7.1H-1l0-7.1H-15z"/>
				</g>
				<g id="g3555" transform="translate(409.8389,157.1113)">
					<path id="path3557" inkscape:connector-curvature="0" class="st0" d="M3.9-113.2c-3.1,3.3-7,4.9-11.6,4.9
						c-4.6,0-8.4-1.6-11.6-4.9c-3.1-3.3-4.7-7.2-4.7-11.8c0-4.6,1.6-8.6,4.7-11.8c3.1-3.3,7-4.9,11.6-4.9c4.6,0,8.4,1.6,11.6,4.9
						c3.1,3.3,4.7,7.2,4.7,11.8C8.7-120.4,7.1-116.5,3.9-113.2 M9.6-142.1c-4.7-4.6-10.4-6.8-17.3-6.8c-6.9,0-12.6,2.3-17.3,6.8
						c-4.7,4.5-7,10.2-7,17c0,6.8,2.3,12.5,7,17c4.7,4.6,10.4,6.8,17.3,6.8c6.9,0,12.6-2.3,17.3-6.8c4.7-4.6,7-10.2,7-17
						C16.6-131.9,14.3-137.5,9.6-142.1"/>
				</g>
				<g id="g3559" transform="translate(423.3486,134.3877)">
					<path id="path3561" inkscape:connector-curvature="0" class="st0" d="M11.4-125.7v46.1h7.8v-38.7h21v-7.4H11.4z"/>
				</g>
				<path id="path3563" inkscape:connector-curvature="0" class="st0" d="M468.5,54.8h7.8V8.7h-7.8V54.8z"/>
				<g id="g3565" transform="translate(478.8916,157.1113)">
					<path id="path3567" inkscape:connector-curvature="0" class="st0" d="M41.9-113.2c-3.1,3.3-7,4.9-11.6,4.9
						c-4.6,0-8.4-1.6-11.6-4.9c-3.1-3.3-4.7-7.2-4.7-11.8c0-4.6,1.6-8.6,4.7-11.8c3.1-3.3,7-4.9,11.6-4.9c4.6,0,8.4,1.6,11.6,4.9
						c3.1,3.3,4.7,7.2,4.7,11.8C46.6-120.4,45.1-116.5,41.9-113.2 M47.6-142.1c-4.7-4.6-10.4-6.8-17.3-6.8c-6.9,0-12.6,2.3-17.3,6.8
						c-4.7,4.5-7,10.2-7,17c0,6.8,2.3,12.5,7,17s10.4,6.8,17.3,6.8c6.9,0,12.6-2.3,17.3-6.8c4.7-4.6,7-10.2,7-17
						C54.6-131.9,52.3-137.5,47.6-142.1"/>
				</g>
				<g id="g3569" transform="translate(513.7266,164.1338)">
					<path id="path3571" inkscape:connector-curvature="0" class="st0" d="M61.1-109.4h7.8v-46.1h-8.4l-26.1,33.6v-33.6h-7.8v46.1
						h7.8l26.8-34.4V-109.4z"/>
				</g>
				<g id="g3573" transform="translate(534.2002,160.2197)">
					<path id="path3575" inkscape:connector-curvature="0" class="st0" d="M72.4-111.5c-2.3,0-4.1-0.5-5.6-1.4
						c-1.5-0.9-2.2-2.3-2.2-4.2c0-1.9,0.7-3.3,2.2-4.3c1.5-1,4.5-2.1,9.3-3.2c4.7-1.1,8.3-2.8,10.7-4.8c2.4-2.1,3.6-5.1,3.6-9.1
						s-1.5-7.3-4.6-9.8c-3-2.5-7-3.8-11.9-3.8c-7.2,0-13.6,2.5-19.2,7.5l4.9,5.9c4.7-4,9.5-6.1,14.5-6.1c2.5,0,4.5,0.5,6,1.6
						c1.5,1.1,2.2,2.5,2.2,4.3c0,1.8-0.7,3.2-2.1,4.2c-1.4,1-3.8,1.9-7.2,2.7c-3.4,0.8-6,1.6-7.7,2.2c-1.8,0.7-3.3,1.6-4.7,2.7
						c-2.7,2.1-4.1,5.2-4.1,9.5c0,4.3,1.6,7.6,4.6,9.9c3.1,2.3,6.9,3.5,11.5,3.5c2.9,0,5.9-0.5,8.8-1.5c2.9-1,5.4-2.3,7.5-4.1
						l-4.2-5.9c-1.4,1.2-3.2,2.2-5.5,3C76.9-111.9,74.6-111.5,72.4-111.5"/>
				</g>
			</g>
		</g>
	</g>
</g>
</svg>
